<?xml version="1.0" encoding="UTF-8"?>
<svg version="1.1" xmlns="http://www.w3.org/2000/svg" width="152" height="150">
<path d="M0 0 C1.8300634 -0.00832352 1.8300634 -0.00832352 3.69709778 -0.01681519 C7.03651324 -0.02659374 10.37437729 -0.01402428 13.71362758 0.00946999 C17.21285455 0.02961041 20.71204828 0.0236977 24.21131897 0.0213623 C30.08828303 0.02141585 35.96492531 0.04115453 41.84179688 0.07324219 C48.62823415 0.11011688 55.41424975 0.11891984 62.20077413 0.11194468 C68.73779977 0.10563011 75.27468138 0.11641264 81.81167793 0.13591003 C84.58945334 0.14406705 87.36715496 0.14679671 90.14494133 0.1452179 C94.02777298 0.14417236 97.91022562 0.16839712 101.79296875 0.1953125 C102.94173492 0.1923819 104.0905011 0.18945129 105.27407837 0.18643188 C110.89255557 0.24652255 115.15199637 0.35527728 119.96118164 3.61523438 C123.68134732 7.5919632 124.08302443 11.41950732 124.10835266 16.7119751 C124.11908562 18.25529259 124.11908562 18.25529259 124.1300354 19.82978821 C124.1327243 20.95297958 124.13541321 22.07617096 124.13818359 23.23339844 C124.14475479 24.42082138 124.15132599 25.60824432 124.15809631 26.83164978 C124.17782149 30.76471313 124.189494 34.69776312 124.19946289 38.63085938 C124.20351241 39.98778046 124.2076294 41.34470134 124.21181297 42.70162201 C124.23085346 49.07788443 124.24508674 55.45413536 124.25342494 61.83042073 C124.26319274 69.17750246 124.28950476 76.52428254 124.32992584 83.87125802 C124.36013809 89.55889263 124.37489864 95.24644101 124.37820596 100.93415427 C124.38055066 104.32709138 124.38943473 107.71970582 124.41466713 111.11255646 C124.43901291 114.90177932 124.43810128 118.69021506 124.43115234 122.47949219 C124.45036743 124.15213387 124.45036743 124.15213387 124.4699707 125.85856628 C124.42868741 132.04264744 124.06654786 137.68815185 119.96118164 142.61523438 C116.41139768 145.21923517 113.91405761 145.99150688 109.54090881 146.00291443 C108.46569473 146.01281906 107.39048065 146.02272369 106.28268433 146.03292847 C105.11319244 146.02842682 103.94370056 146.02392517 102.73876953 146.01928711 C101.49922012 146.02615036 100.25967072 146.03301361 98.9825592 146.04008484 C95.58981299 146.05523711 92.1976168 146.05685049 88.80487752 146.05114245 C85.96941377 146.0480486 83.1339996 146.05414525 80.29854292 146.0601812 C73.60767794 146.07422065 66.91694066 146.07267012 60.22607422 146.0612793 C53.33053857 146.04979922 46.43539191 146.06387286 39.53990752 146.09067577 C33.61277026 146.11284946 27.68575497 146.1194664 21.75857919 146.11359936 C18.22156263 146.11023244 14.68479537 146.11262681 11.1478138 146.12985039 C7.20271747 146.14822344 3.25809766 146.13411514 -0.68701172 146.11694336 C-2.4382132 146.13144531 -2.4382132 146.13144531 -4.22479248 146.14624023 C-10.24815341 146.09129339 -14.49424763 146.02459018 -19.03881836 141.61523438 C-23.11120592 136.14463413 -22.45445306 129.94362746 -22.41113281 123.4152832 C-22.41478348 122.19027603 -22.41843414 120.96526886 -22.42219543 119.70314026 C-22.42889781 116.35608877 -22.42221048 113.00959621 -22.40886331 109.6625998 C-22.39751904 106.15663265 -22.40165842 102.65067934 -22.40361023 99.1446991 C-22.40449192 93.26121226 -22.39343619 87.37784093 -22.375 81.49438477 C-22.35380473 74.69145789 -22.35032948 67.88869981 -22.35656196 61.08574659 C-22.36225386 54.53753099 -22.35661393 47.98937485 -22.34538841 41.44116783 C-22.34074311 38.65534046 -22.33986823 35.86954945 -22.34197426 33.08371925 C-22.34420541 29.19808271 -22.32975782 25.31260717 -22.31347656 21.42700195 C-22.31595398 20.269021 -22.3184314 19.11104004 -22.32098389 17.91796875 C-22.31389908 16.86233231 -22.30681427 15.80669586 -22.29951477 14.71907043 C-22.2974619 13.8004614 -22.29540903 12.88185236 -22.29329395 11.93540668 C-22.03881836 9.61523438 -22.03881836 9.61523438 -20.03881836 6.61523438 C-19.04881836 6.28523437 -18.05881836 5.95523437 -17.03881836 5.61523438 C-16.40024399 4.78229858 -15.76166962 3.94936279 -15.10374451 3.09118652 C-10.39157222 -0.71546738 -5.88753496 -0.06785581 0 0 Z M53.96118164 6.61523438 C53.96118164 21.79523437 53.96118164 36.97523437 53.96118164 52.61523438 C67.17865764 54.00986785 67.17865764 54.00986785 73.19555664 48.71289062 C74.73839681 47.06903116 76.24378003 45.38927235 77.71118164 43.67773438 C79.24671465 42.0011052 80.78312731 40.32528109 82.32055664 38.65039062 C82.97507812 37.90152588 83.62959961 37.15266113 84.30395508 36.38110352 C86.6086937 33.92527346 87.53458776 33.63148058 90.94213867 33.50170898 C92.81168213 33.50956421 92.81168213 33.50956421 94.71899414 33.51757812 C95.71357132 33.51970055 95.71357132 33.51970055 96.72824097 33.52186584 C98.84760027 33.52746684 100.96685423 33.54001937 103.08618164 33.55273438 C104.52237803 33.55774925 105.95857608 33.56231218 107.39477539 33.56640625 C110.91694509 33.57743655 114.43905309 33.59470179 117.96118164 33.61523438 C118.07741103 29.86549532 118.14844114 26.11621973 118.21118164 22.36523438 C118.24469727 21.30175781 118.27821289 20.23828125 118.31274414 19.14257812 C118.32563477 18.11777344 118.33852539 17.09296875 118.35180664 16.03710938 C118.37275391 15.09448242 118.39370117 14.15185547 118.4152832 13.18066406 C117.82087595 9.82258266 116.63279108 8.67327551 113.96118164 6.61523438 C111.03119528 6.13052825 108.46885211 5.91537229 105.52368164 5.86523438 C104.64929443 5.83703613 103.77490723 5.80883789 102.87402344 5.77978516 C99.56954539 5.69107803 96.26669779 5.64889368 92.96118164 5.61523438 C92.2314917 5.60770142 91.50180176 5.60016846 90.75 5.59240723 C84.92459417 5.5355784 79.0993349 5.50562709 73.27368164 5.49023438 C72.43410919 5.48737427 71.59453674 5.48451416 70.72952271 5.48156738 C68.3236224 5.47580777 65.91786303 5.47768723 63.51196289 5.48242188 C62.77951355 5.48045807 62.04706421 5.47849426 61.29241943 5.47647095 C57.50085315 5.4318169 57.50085315 5.4318169 53.96118164 6.61523438 Z M-14.58569336 8.50195312 C-16.74886979 13.13650048 -16.46493432 17.38472154 -16.28881836 22.42773438 C-16.27077148 23.40677734 -16.25272461 24.38582031 -16.23413086 25.39453125 C-16.18714723 27.80244208 -16.1214753 30.20832773 -16.03881836 32.61523438 C-14.73847656 32.60568726 -14.73847656 32.60568726 -13.41186523 32.59594727 C-10.16072753 32.58877947 -6.91169286 32.61308129 -3.66088867 32.65795898 C-2.2605587 32.67100854 -0.86005613 32.67191596 0.5402832 32.65991211 C13.65402314 32.56169936 13.65402314 32.56169936 18.57836914 36.77148438 C19.74744139 38.01501274 20.87845171 39.29584489 21.96118164 40.61523438 C22.45585938 41.175896 22.95053711 41.73655762 23.46020508 42.31420898 C27.29131488 46.67212944 27.29131488 46.67212944 28.85571289 48.69140625 C31.60981173 51.74251575 33.29887217 52.55043724 37.47973633 52.95947266 C40.99109293 52.96256597 44.45872051 52.85654449 47.96118164 52.61523438 C47.98645166 46.08244651 48.00401456 39.54967116 48.01611328 33.0168457 C48.02115481 30.79255706 48.02798787 28.56827175 48.03662109 26.34399414 C48.04869462 23.15445129 48.0544116 19.96495209 48.05883789 16.77539062 C48.06399918 15.77435806 48.06916046 14.7733255 48.07447815 13.74195862 C48.07459145 12.36064003 48.07459145 12.36064003 48.07470703 10.95141602 C48.07692764 10.13645157 48.07914825 9.32148712 48.08143616 8.48182678 C48.1664641 6.60045581 48.1664641 6.60045581 46.96118164 5.61523438 C45.44357615 5.51680622 43.92142816 5.48724858 42.40063477 5.48583984 C41.42872192 5.48268768 40.45680908 5.47953552 39.45544434 5.47628784 C38.39515015 5.47831207 37.33485596 5.4803363 36.24243164 5.48242188 C34.61186829 5.48098679 34.61186829 5.48098679 32.94836426 5.47952271 C30.63818301 5.47884025 28.32799986 5.48069907 26.01782227 5.48486328 C22.50410557 5.49016955 18.99051911 5.48494194 15.47680664 5.47851562 C13.23201469 5.4791772 10.98722283 5.48046001 8.74243164 5.48242188 C7.17628113 5.47938553 7.17628113 5.47938553 5.57849121 5.47628784 C-5.06113881 5.01665781 -5.06113881 5.01665781 -14.58569336 8.50195312 Z M-16.03881836 38.61523438 C-16.06347339 43.0117961 -16.08165678 47.40832157 -16.09375 51.80493164 C-16.09878957 53.30168356 -16.10562123 54.79843053 -16.11425781 56.29516602 C-16.12633995 58.44223245 -16.13205027 60.589234 -16.13647461 62.73632812 C-16.14171143 64.02982178 -16.14694824 65.32331543 -16.15234375 66.65600586 C-16.37878768 69.50175842 -16.37878768 69.50175842 -15.03881836 70.61523438 C-13.63206616 70.71328288 -12.220467 70.74321624 -10.81030273 70.74462891 C-9.91267212 70.74778107 -9.0150415 70.75093323 -8.09020996 70.75418091 C-7.11418823 70.75215668 -6.1381665 70.75013245 -5.13256836 70.74804688 C-3.64001526 70.74948196 -3.64001526 70.74948196 -2.11730957 70.75094604 C-0.00895118 70.75162797 2.09940929 70.74977281 4.20776367 70.74560547 C7.44723191 70.7402574 10.6865615 70.74555005 13.92602539 70.75195312 C15.96899445 70.75129235 18.01196342 70.75001119 20.05493164 70.74804688 C21.51896423 70.75108322 21.51896423 70.75108322 23.01257324 70.75418091 C24.35901917 70.74945267 24.35901917 70.74945267 25.73266602 70.74462891 C26.52684937 70.74383331 27.32103271 70.74303772 28.13928223 70.74221802 C29.98107967 70.81407984 29.98107967 70.81407984 30.96118164 69.61523438 C31.08696193 68.03566797 31.1369618 66.44975744 31.14868164 64.86523438 C31.16286133 64.00414063 31.17704102 63.14304687 31.19165039 62.25585938 C30.76904205 57.41377058 28.97988314 54.25292291 25.55493164 50.88085938 C24.89364258 50.22472656 24.23235352 49.56859375 23.55102539 48.89257812 C22.86137695 48.22355469 22.17172852 47.55453125 21.46118164 46.86523438 C20.7715332 46.18074219 20.08188477 45.49625 19.37133789 44.79101562 C14.52745932 40.02267512 12.62153049 38.4861337 5.64086914 38.51757812 C3.75561523 38.52241211 3.75561523 38.52241211 1.83227539 38.52734375 C0.51356445 38.53572266 -0.80514648 38.54410156 -2.16381836 38.55273438 C-3.50366047 38.55774948 -4.84350436 38.56231237 -6.18334961 38.56640625 C-9.46855042 38.57822352 -12.75366233 38.5946982 -16.03881836 38.61523438 Z M73.17504883 53.60058594 C70.97487658 57.25219924 70.82377904 60.60445404 70.83618164 64.80273438 C70.83360352 65.68316406 70.83102539 66.56359375 70.82836914 67.47070312 C70.72253131 69.59726628 70.72253131 69.59726628 71.96118164 70.61523438 C73.40407951 70.70819253 74.85147949 70.7326995 76.29736328 70.72875977 C77.21824234 70.72868423 78.1391214 70.7286087 79.08790588 70.72853088 C80.58945473 70.72078896 80.58945473 70.72078896 82.12133789 70.71289062 C83.14094101 70.71147568 84.16054413 70.71006073 85.21104431 70.70860291 C88.48195271 70.70298534 91.75279377 70.69042988 95.02368164 70.67773438 C97.2352692 70.67272164 99.44685782 70.66815834 101.65844727 70.6640625 C107.09273916 70.65385917 112.52688462 70.63428723 117.96118164 70.61523438 C117.96118164 60.05523437 117.96118164 49.49523437 117.96118164 38.61523438 C97.0296627 36.96018404 86.15243327 36.4281679 73.17504883 53.60058594 Z M35.96118164 58.61523438 C35.96118164 68.18523437 35.96118164 77.75523438 35.96118164 87.61523438 C43.10715745 88.45217165 43.10715745 88.45217165 50.17993164 88.74804688 C51.48317383 88.74998047 51.48317383 88.74998047 52.81274414 88.75195312 C53.68672852 88.74808594 54.56071289 88.74421875 55.46118164 88.74023438 C56.36610352 88.74410156 57.27102539 88.74796875 58.20336914 88.75195312 C59.06188477 88.75066406 59.92040039 88.749375 60.80493164 88.74804688 C61.58030273 88.74691895 62.35567383 88.74579102 63.15454102 88.74462891 C64.98282165 88.81185616 64.98282165 88.81185616 65.96118164 87.61523438 C66.04893769 85.46964611 66.06813383 83.32119016 66.05883789 81.17382812 C66.05634033 79.99876709 66.05384277 78.82370605 66.05126953 77.61303711 C66.04216553 76.10813721 66.03306152 74.6032373 66.02368164 73.05273438 C65.99274414 65.90617187 65.99274414 65.90617187 65.96118164 58.61523438 C56.06118164 58.61523438 46.16118164 58.61523438 35.96118164 58.61523438 Z M-16.03881836 76.61523438 C-16.03881836 86.84523438 -16.03881836 97.07523438 -16.03881836 107.61523438 C2.21565986 110.00129524 2.21565986 110.00129524 18.89477539 104.02929688 C20.57462165 102.53262449 22.20392695 100.97699797 23.77368164 99.36523438 C24.51859863 98.60871582 25.26351562 97.85219727 26.03100586 97.07275391 C30.81846728 91.4860269 31.67456031 87.18385209 31.21386719 79.89746094 C31.13048096 79.14432617 31.04709473 78.39119141 30.96118164 77.61523438 C28.10012309 75.99439646 26.05679264 75.36575978 22.77514648 75.37231445 C21.96105316 75.36923782 21.14695984 75.36616119 20.30819702 75.36299133 C19.43829132 75.37017685 18.56838562 75.37736237 17.67211914 75.38476562 C16.77248444 75.38522385 15.87284973 75.38568207 14.94595337 75.38615417 C13.04802122 75.38917075 11.15009141 75.39703926 9.25219727 75.40942383 C6.33999921 75.4277104 3.4281187 75.42993322 0.51586914 75.4296875 C-1.32788362 75.4346018 -3.17163422 75.44042973 -5.01538086 75.44726562 C-5.88933502 75.44837845 -6.76328918 75.44949127 -7.66372681 75.45063782 C-11.98751052 75.35589211 -11.98751052 75.35589211 -16.03881836 76.61523438 Z M71.96118164 76.61523438 C71.58879446 78.94265426 71.26281298 81.27759153 70.96118164 83.61523438 C70.80262695 84.49179688 70.64407227 85.36835937 70.48071289 86.27148438 C71.65118456 94.41720589 79.54475198 101.16650948 85.82104492 105.9453125 C95.39484659 111.03665159 107.76591446 108.47278021 117.96118164 107.61523438 C117.96118164 97.38523437 117.96118164 87.15523437 117.96118164 76.61523438 C114.61139521 74.94034116 110.83938581 75.47367267 107.15649414 75.48242188 C106.28096893 75.48146515 105.40544373 75.48050842 104.50338745 75.47952271 C102.64898609 75.47884148 100.79458234 75.48069177 98.94018555 75.48486328 C96.10468154 75.49019956 93.26933686 75.48492298 90.43383789 75.47851562 C88.63305629 75.47917667 86.83227479 75.48045837 85.03149414 75.48242188 C84.18346222 75.48039764 83.3354303 75.47837341 82.46170044 75.47628784 C81.66762787 75.47944 80.8735553 75.48259216 80.05541992 75.48583984 C79.35973907 75.48663544 78.66405823 75.48743103 77.94729614 75.48825073 C75.84986695 75.62235136 73.98041884 76.04572405 71.96118164 76.61523438 Z M25.52368164 103.05273438 C20.02432074 109.5832624 15.37224737 113.32753198 6.85180664 114.09960938 C-0.77146235 114.58245432 -8.43417563 114.24208286 -16.03881836 113.61523438 C-16.12602755 117.19841395 -16.17927948 120.78132005 -16.22631836 124.36523438 C-16.25145508 125.38101563 -16.2765918 126.39679688 -16.30249023 127.44335938 C-16.3121582 128.42304688 -16.32182617 129.40273437 -16.33178711 130.41210938 C-16.34749756 131.3128418 -16.36320801 132.21357422 -16.37939453 133.14160156 C-15.96804757 136.12924844 -15.11494246 137.4543891 -13.03881836 139.61523438 C-9.92004453 140.65482565 -7.7526493 140.74203413 -4.48168945 140.74462891 C-2.77509659 140.74935715 -2.77509659 140.74935715 -1.0340271 140.75418091 C0.19415741 140.75215668 1.42234192 140.75013245 2.68774414 140.74804688 C3.94630219 140.7490036 5.20486023 140.74996033 6.5015564 140.75094604 C9.16293774 140.75162696 11.82422744 140.75027936 14.4855957 140.74560547 C17.90337598 140.73989677 21.32107793 140.74319664 24.73885536 140.74917793 C27.99265448 140.75364996 31.246444 140.7505241 34.50024414 140.74804688 C36.3485936 140.75108322 36.3485936 140.75108322 38.23428345 140.75418091 C39.3657077 140.75102875 40.49713196 140.74787659 41.6628418 140.74462891 C43.16483627 140.74343552 43.16483627 140.74343552 44.69717407 140.74221802 C46.92927883 140.86927026 46.92927883 140.86927026 47.96118164 139.61523438 C48.0541398 138.17233651 48.07864677 136.72493653 48.07470703 135.27905273 C48.0746315 134.35817368 48.07455597 133.43729462 48.07447815 132.48851013 C48.06931686 131.48747757 48.06415558 130.48644501 48.05883789 129.45507812 C48.05742294 128.43547501 48.056008 127.41587189 48.05455017 126.3653717 C48.04893261 123.0944633 48.03637714 119.82362224 48.02368164 116.55273438 C48.0186689 114.34114682 48.01410561 112.12955819 48.01000977 109.91796875 C47.99895748 104.48370081 47.98220227 99.0494724 47.96118164 93.61523438 C36.4115205 92.22976439 32.30908807 93.89550694 25.52368164 103.05273438 Z M53.96118164 93.61523438 C53.93653817 100.14802777 53.91834873 106.68079435 53.90625 113.21362305 C53.90120847 115.43791169 53.89437541 117.662197 53.88574219 119.88647461 C53.87366866 123.07601746 53.86795168 126.26551666 53.86352539 129.45507812 C53.85836411 130.45611069 53.85320282 131.45714325 53.84788513 132.48851013 C53.8478096 133.40938919 53.84773407 134.33026825 53.84765625 135.27905273 C53.84543564 136.09401718 53.84321503 136.90898163 53.84092712 137.74864197 C53.75589919 139.63001294 53.75589919 139.63001294 54.96118164 140.61523438 C56.68365355 140.7193282 58.41038506 140.75376922 60.13598633 140.76049805 C61.24093445 140.7668779 62.34588257 140.77325775 63.48431396 140.77983093 C65.29044159 140.78150017 65.29044159 140.78150017 67.13305664 140.78320312 C68.97761444 140.78819572 68.97761444 140.78819572 70.85943604 140.79328918 C73.46886825 140.79836481 76.07830699 140.80069732 78.68774414 140.80053711 C81.36294317 140.80045588 84.03797089 140.80738695 86.71313477 140.82104492 C90.56149554 140.8393546 94.40965666 140.84427356 98.25805664 140.84570312 C100.05203888 140.8564814 100.05203888 140.8564814 101.88226318 140.86747742 C102.99981995 140.86440079 104.11737671 140.86132416 105.26879883 140.8581543 C106.24951355 140.85957932 107.23022827 140.86100433 108.24066162 140.86247253 C111.20931464 140.59268429 113.31531692 139.98212926 115.96118164 138.61523438 C118.16310388 135.31235101 118.20078133 134.34060711 118.15649414 130.50976562 C118.15004883 129.52685547 118.14360352 128.54394531 118.13696289 127.53125 C118.12020508 126.50708984 118.10344727 125.48292969 118.08618164 124.42773438 C118.0771582 123.39197266 118.06813477 122.35621094 118.05883789 121.2890625 C118.03526024 118.73088753 118.00235194 116.1731769 117.96118164 113.61523438 C116.60754517 113.62478149 116.60754517 113.62478149 115.2265625 113.63452148 C111.85019963 113.64167893 108.47699361 113.61745153 105.10107422 113.57250977 C103.64540359 113.55943923 102.1895667 113.55857236 100.73388672 113.57055664 C88.5621214 113.6581233 88.5621214 113.6581233 84.47338867 110.99462891 C82.59008789 109.05664063 82.59008789 109.05664063 81.12744141 107.11352539 C80.74257568 106.61908936 80.35770996 106.12465332 79.96118164 105.61523438 C79.30118164 105.61523438 78.64118164 105.61523438 77.96118164 105.61523438 C77.73430664 105.05835937 77.50743164 104.50148438 77.27368164 103.92773438 C75.58568128 100.9536385 73.49441647 98.89514572 70.96118164 96.61523438 C70.30118164 96.61523438 69.64118164 96.61523438 68.96118164 96.61523438 C68.63118164 95.62523438 68.30118164 94.63523437 67.96118164 93.61523438 C63.34118164 93.61523438 58.72118164 93.61523438 53.96118164 93.61523438 Z " fill="#D9D9D9" transform="translate(25.038818359375,1.384765625)"/>
<path d="M0 0 C16.17 0 32.34 0 49 0 C49 11.22 49 22.44 49 34 C17.71331497 35.45212462 17.71331497 35.45212462 11.88598633 30.16333008 C7 24.48419341 7 24.48419341 7 21 C6.401875 20.731875 5.80375 20.46375 5.1875 20.1875 C3 19 3 19 0 16 C0 10.72 0 5.44 0 0 Z M2 2 C1.62761282 4.32741989 1.30163134 6.66235715 1 9 C0.84144531 9.8765625 0.68289062 10.753125 0.51953125 11.65625 C1.69000292 19.80197151 9.58357034 26.55127511 15.85986328 31.33007812 C25.43366495 36.42141722 37.80473282 33.85754584 48 33 C48 22.77 48 12.54 48 2 C44.65021357 0.32510679 40.87820417 0.8584383 37.1953125 0.8671875 C36.31978729 0.86623077 35.44426208 0.86527405 34.54220581 0.86428833 C32.68780445 0.8636071 30.8334007 0.8654574 28.97900391 0.86962891 C26.1434999 0.87496518 23.30815522 0.8696886 20.47265625 0.86328125 C18.67187465 0.86394229 16.87109315 0.865224 15.0703125 0.8671875 C14.22228058 0.86516327 13.37424866 0.86313904 12.5005188 0.86105347 C11.70644623 0.86420563 10.91237366 0.86735779 10.09423828 0.87060547 C9.39855743 0.87140106 8.70287659 0.87219666 7.9861145 0.87301636 C5.88868531 1.00711698 4.0192372 1.43048968 2 2 Z " fill="#989898" transform="translate(95,76)"/>
<path d="M0 0 C0.93767212 -0.00315216 1.87534424 -0.00630432 2.84143066 -0.009552 C3.86119995 -0.00752777 4.88096924 -0.00550354 5.93164062 -0.00341797 C7.49078186 -0.00485306 7.49078186 -0.00485306 9.0814209 -0.00631714 C11.28393616 -0.0069991 13.48645342 -0.00514374 15.68896484 -0.00097656 C19.07328782 0.00437146 22.45747806 -0.00092105 25.84179688 -0.00732422 C27.97591175 -0.00666344 30.11002655 -0.00538228 32.24414062 -0.00341797 C33.26390991 -0.0054422 34.2836792 -0.00746643 35.33435059 -0.009552 C36.74085876 -0.00482376 36.74085876 -0.00482376 38.17578125 0 C39.42035095 0.00119339 39.42035095 0.00119339 40.69006348 0.00241089 C42.58789062 0.12939453 42.58789062 0.12939453 43.58789062 1.12939453 C44.82759397 13.85596933 44.82759397 13.85596933 42.31835938 18.45751953 C40.71289062 20.06689453 40.71289062 20.06689453 37.58789062 22.12939453 C36.92789063 22.12939453 36.26789062 22.12939453 35.58789062 22.12939453 C35.32234375 22.70238281 35.05679688 23.27537109 34.78320312 23.86572266 C32.46213099 28.26134782 29.8525452 31.49696746 25.58789062 34.12939453 C20.21181064 35.10310825 15.02358492 34.89088017 9.58789062 34.62939453 C8.13095757 34.58920327 6.67391748 34.55271239 5.21679688 34.52001953 C1.67157904 34.43249092 -1.86957164 34.29481476 -5.41210938 34.12939453 C-5.43676226 29.44800199 -5.45494677 24.76664694 -5.46704102 20.08520508 C-5.47208095 18.49144839 -5.47891287 16.89769634 -5.48754883 15.30395508 C-5.49962936 13.017892 -5.50534093 10.73188986 -5.50976562 8.44580078 C-5.51492691 7.72912735 -5.5200882 7.01245392 -5.52540588 6.27406311 C-5.525602 4.55875781 -5.47402945 2.84358187 -5.41210938 1.12939453 C-3.82528948 -0.45742536 -2.19962592 0.00210917 0 0 Z M-4.41210938 2.12939453 C-4.41210938 12.35939453 -4.41210938 22.58939453 -4.41210938 33.12939453 C13.84236885 35.5154554 13.84236885 35.5154554 30.52148438 29.54345703 C32.20133063 28.04678464 33.83063593 26.49115813 35.40039062 24.87939453 C36.14530762 24.12287598 36.89022461 23.36635742 37.65771484 22.58691406 C42.44517627 17.00018706 43.3012693 12.69801225 42.84057617 5.41162109 C42.75718994 4.65848633 42.67380371 3.90535156 42.58789062 3.12939453 C39.72683208 1.50855662 37.68350163 0.87991993 34.40185547 0.88647461 C33.58776215 0.88339798 32.77366882 0.88032135 31.93490601 0.87715149 C31.06500031 0.88433701 30.1950946 0.89152252 29.29882812 0.89892578 C28.39919342 0.899384 27.49955872 0.89984222 26.57266235 0.90031433 C24.6747302 0.90333091 22.77680039 0.91119942 20.87890625 0.92358398 C17.96670819 0.94187056 15.05482768 0.94409337 12.14257812 0.94384766 C10.29882536 0.94876195 8.45507476 0.95458989 6.61132812 0.96142578 C5.73737396 0.9625386 4.8634198 0.96365143 3.96298218 0.96479797 C-0.36080154 0.87005226 -0.36080154 0.87005226 -4.41210938 2.12939453 Z " fill="#979797" transform="translate(13.412109375,75.87060546875)"/>
<path d="M0 0 C16.17 0 32.34 0 49 0 C49 0.33 49 0.66 49 1 C33.49 1.33 17.98 1.66 2 2 C0.81189325 13.94798288 0.81189325 13.94798288 4.5 18.8125 C5.7375 19.8953125 5.7375 19.8953125 7 21 C3.90837736 19.61410019 2.50816459 18.50816459 0 16 C0 10.72 0 5.44 0 0 Z " fill="#B9B9B9" transform="translate(95,76)"/>
<path d="M0 0 C6.6752034 -0.02526945 13.35039457 -0.04283268 20.02563477 -0.05493164 C22.29842591 -0.05997325 24.5712138 -0.06680637 26.84399414 -0.07543945 C30.10303551 -0.08751261 33.36203417 -0.09322987 36.62109375 -0.09765625 C37.64400009 -0.10281754 38.66690643 -0.10797882 39.72080994 -0.11329651 C40.66170975 -0.11337204 41.60260956 -0.11344757 42.57202148 -0.11352539 C43.40475082 -0.115746 44.23748016 -0.11796661 45.09544373 -0.12025452 C47 0 47 0 48 1 C49.24964259 13.82860938 49.24964259 13.82860938 46.66015625 18.328125 C45 19.9375 45 19.9375 42 22 C41.34 21.67 40.68 21.34 40 21 C40.99 20.2575 41.98 19.515 43 18.75 C45.38815608 16.42911592 45.96301652 15.28499031 46.3984375 11.9296875 C46.3771871 8.93338164 46.26078389 5.98452678 46 3 C43.26437166 2.08812389 41.53854525 1.85269741 38.7121582 1.79467773 C37.85149246 1.77473251 36.99082672 1.75478729 36.1040802 1.73423767 C34.71644722 1.70916893 34.71644722 1.70916893 33.30078125 1.68359375 C32.35059616 1.66281265 31.40041107 1.64203156 30.4214325 1.62062073 C27.38519544 1.55521948 24.34887169 1.49628396 21.3125 1.4375 C19.25454831 1.39430583 17.19660541 1.35069124 15.13867188 1.30664062 C10.09253684 1.19954769 5.04631457 1.09825354 0 1 C0 0.67 0 0.34 0 0 Z " fill="#BEBEBE" transform="translate(9,76)"/>
</svg>
