<?xml version="1.0" encoding="UTF-8"?>
<svg version="1.1" xmlns="http://www.w3.org/2000/svg" width="152" height="150">
<path d="M0 0 C50.16 0 100.32 0 152 0 C152 49.5 152 99 152 150 C101.84 150 51.68 150 0 150 C0 100.5 0 51 0 0 Z M5.6875 7.4375 C3.14232041 11.30240234 2.87486301 14.50241807 2.85955811 19.07223511 C2.85384796 20.0955896 2.84813782 21.11894409 2.84225464 22.17330933 C2.84113678 23.29029205 2.84001892 24.40727478 2.83886719 25.55810547 C2.83390228 26.73898743 2.82893738 27.91986938 2.82382202 29.13653564 C2.81172703 32.3721415 2.80425902 35.60771126 2.79981136 38.84333563 C2.79687635 40.86625413 2.79277078 42.88916701 2.78830719 44.91208267 C2.77464103 51.24562963 2.76496963 57.5791637 2.7611053 63.91272438 C2.75662423 71.21619113 2.73907054 78.51947076 2.7101047 85.82288063 C2.68847224 91.47396758 2.67840021 97.12500193 2.67706418 102.77612984 C2.67601742 106.14881921 2.67013714 109.52133246 2.65224457 112.89397812 C2.6352067 116.65716523 2.637059 120.41989553 2.64355469 124.18310547 C2.6343399 125.29603973 2.62512512 126.408974 2.6156311 127.55563354 C2.65281644 134.42624626 3.37080227 138.95999013 8 144.3125 C11.24175377 147.04772975 14.02935556 147.12724468 18.11056519 147.14044189 C19.16764679 147.14615204 20.22472839 147.15186218 21.31384277 147.15774536 C22.47339478 147.15886322 23.63294678 147.15998108 24.82763672 147.16113281 C26.04899323 147.16609772 27.27034973 147.17106262 28.52871704 147.17617798 C31.88002389 147.18828708 35.23126833 147.19574475 38.58258963 147.20018864 C40.67668648 147.2031208 42.77077787 147.20722586 44.86487198 147.21169281 C51.417868 147.22536439 57.97085152 147.23503295 64.52386081 147.2388947 C72.08656714 147.24337609 79.6490928 147.26092902 87.21174419 147.2898953 C93.05897195 147.31151339 98.90614888 147.32159903 104.75341618 147.32293582 C108.24513453 147.32398368 111.73668297 147.32988728 115.22835922 147.34775543 C119.12349019 147.36730083 123.01839536 147.36294662 126.91357422 147.35644531 C128.64682953 147.37026749 128.64682953 147.37026749 130.4151001 147.3843689 C131.47782135 147.37879974 132.5405426 147.37323059 133.63546753 147.36749268 C135.01646039 147.36969252 135.01646039 147.36969252 136.4253521 147.3719368 C140.77814024 146.74312768 143.35738067 144.71402148 146.25 141.5 C148.74551471 137.93497899 149.12623342 135.29538599 149.14044189 131.05474854 C149.14615204 130.03421387 149.15186218 129.0136792 149.15774536 127.96221924 C149.15886322 126.84321228 149.15998108 125.72420532 149.16113281 124.57128906 C149.16609772 123.39215942 149.17106262 122.21302979 149.17617798 120.99816895 C149.18828709 117.76243673 149.19574516 114.52674065 149.20018864 111.29098988 C149.2031217 109.26790145 149.207227 107.24481867 149.21169281 105.22173309 C149.22536645 98.88764671 149.23503314 92.55357325 149.2388947 86.21947312 C149.24337202 78.91600622 149.26090517 71.61272679 149.2898953 64.30931687 C149.31154191 58.65908371 149.3216006 53.00890316 149.32293582 47.35862899 C149.32398194 43.98645171 149.32984799 40.61445069 149.34775543 37.2423172 C149.36481523 33.47683024 149.36293537 29.71179902 149.35644531 25.94628906 C149.37026749 24.27992401 149.37026749 24.27992401 149.3843689 22.57989502 C149.35212998 16.60689203 148.95258078 12.24353023 146 7 C141.82197325 3.03087459 138.64715071 1.87823509 132.97209167 1.85955811 C131.93328354 1.85384796 130.8944754 1.84813782 129.82418823 1.84225464 C128.11526901 1.84057785 128.11526901 1.84057785 126.37182617 1.83886719 C124.57146156 1.83141983 124.57146156 1.83141983 122.73472595 1.82382202 C119.44120108 1.81171289 116.1477397 1.80425505 112.85420012 1.79981136 C110.79560749 1.79687876 108.7370204 1.79277358 106.67843056 1.78830719 C100.23488936 1.7746346 93.79136086 1.76496696 87.34780616 1.7611053 C79.91471956 1.75662591 72.48181699 1.73908269 65.04878634 1.7101047 C59.30005588 1.68847261 53.55137713 1.6784002 47.8026064 1.67706418 C44.37065861 1.67601718 40.93888386 1.670132 37.50697899 1.65224457 C33.67662965 1.63520786 29.84672918 1.63705887 26.01635742 1.64355469 C24.88315063 1.6343399 23.74994385 1.62512512 22.58239746 1.6156311 C15.58500929 1.65284177 10.72517432 2.12751896 5.6875 7.4375 Z " fill="#000000" transform="translate(0,0)"/>
<path d="M0 0 C1.16097702 0.00007553 2.32195404 0.00015106 3.51811218 0.00022888 C5.3979052 0.00797081 5.3979052 0.00797081 7.31567383 0.01586914 C8.59879959 0.01728409 9.88192535 0.01869904 11.20393372 0.02015686 C14.61190749 0.02397134 18.01983851 0.03379248 21.42779541 0.04486084 C24.9066916 0.05509796 28.38559492 0.05971422 31.86450195 0.06469727 C38.68810739 0.07488479 45.5115955 0.09445911 52.33520508 0.11352539 C52.33520508 15.62352539 52.33520508 31.13352539 52.33520508 47.11352539 C38.33520508 47.11352539 38.33520508 47.11352539 34.39770508 44.61352539 C33.33690477 43.48307658 32.31714465 42.31311136 31.33520508 41.11352539 C30.73192383 40.44063477 30.12864258 39.76774414 29.50708008 39.07446289 C28.32353183 37.74670078 27.15611501 36.40424889 26.01098633 35.04321289 C25.18147461 34.08801758 25.18147461 34.08801758 24.33520508 33.11352539 C23.79307373 32.42629395 23.25094238 31.7390625 22.69238281 31.03100586 C19.42020072 28.36920181 17.12710999 28.57053975 12.94458008 28.50415039 C12.23996643 28.48761414 11.53535278 28.47107788 10.80938721 28.45404053 C8.56790406 28.405614 6.32709894 28.38420352 4.08520508 28.36352539 C2.56173356 28.33536092 1.03829356 28.3054328 -0.48510742 28.27368164 C-4.21152249 28.19985946 -7.93780872 28.1502507 -11.66479492 28.11352539 C-11.75196962 24.36367214 -11.80524496 20.61407984 -11.85229492 16.86352539 C-11.87743164 15.80004883 -11.90256836 14.73657227 -11.9284668 13.64086914 C-11.93813477 12.61606445 -11.94780273 11.59125977 -11.95776367 10.53540039 C-11.97347412 9.59277344 -11.98918457 8.65014648 -12.00537109 7.67895508 C-11.60077254 4.63126931 -10.78968501 3.30772226 -8.66479492 1.11352539 C-5.51144666 0.0624093 -3.30967209 -0.00717933 0 0 Z " fill="#000000" transform="translate(20.664794921875,6.886474609375)"/>
<path d="M0 0 C7.46938792 -0.06296393 14.93781114 -0.12306164 22.40723419 -0.15525055 C25.88578175 -0.17107253 29.36410893 -0.19220515 32.8425293 -0.22631836 C36.83644712 -0.26524063 40.83013263 -0.27972629 44.82421875 -0.29296875 C46.06709152 -0.30845261 47.30996429 -0.32393646 48.59049988 -0.33988953 C49.75132584 -0.34011612 50.91215179 -0.34034271 52.1081543 -0.34057617 C53.63704536 -0.35056892 53.63704536 -0.35056892 55.19682312 -0.36076355 C58.47230388 0.06078461 60.34857323 1.06215722 63 3 C64.27861615 5.55723229 64.11336609 7.36737102 64.09765625 10.2265625 C64.09282227 11.7734375 64.09282227 11.7734375 64.08789062 13.3515625 C64.07532227 14.97191406 64.07532227 14.97191406 64.0625 16.625 C64.05798828 17.71296875 64.05347656 18.8009375 64.04882812 19.921875 C64.03701776 22.61463789 64.02054778 25.30729188 64 28 C62.68733154 27.90404541 62.68733154 27.90404541 61.34814453 27.80615234 C42.72175518 26.06023902 42.72175518 26.06023902 26.359375 33.07421875 C24.01460111 35.4887401 21.9779066 37.91997046 20.00830078 40.64794922 C18.1796875 43.09765625 18.1796875 43.09765625 14 47 C9.38 47 4.76 47 0 47 C0 31.49 0 15.98 0 0 Z " fill="#000000" transform="translate(79,7)"/>
<path d="M0 0 C4.640625 -0.12375 9.28125 -0.2475 14.0625 -0.375 C16.23791382 -0.45693604 16.23791382 -0.45693604 18.45727539 -0.54052734 C29.11688095 -0.67822348 29.11688095 -0.67822348 33.203125 2.765625 C34.73461914 4.41845703 34.73461914 4.41845703 36 6 C37.02673828 7.08667969 37.02673828 7.08667969 38.07421875 8.1953125 C38.60660156 8.83210938 39.13898437 9.46890625 39.6875 10.125 C42.03638828 12.91675743 44.39765939 15.39765939 47 18 C47 22.62 47 27.24 47 32 C31.49 32 15.98 32 0 32 C0 21.44 0 10.88 0 0 Z " fill="#000000" transform="translate(9,40)"/>
<path d="M0 0 C6.9609375 0.185625 6.9609375 0.185625 14.0625 0.375 C14.0625 10.935 14.0625 21.495 14.0625 32.375 C-1.4475 32.375 -16.9575 32.375 -32.9375 32.375 C-32.9375 18.375 -32.9375 18.375 -30.8125 15.4375 C-29.389375 14.4165625 -29.389375 14.4165625 -27.9375 13.375 C-26.95384822 12.25082654 -25.99687294 11.10295442 -25.0625 9.9375 C-23.7578125 8.31640625 -23.7578125 8.31640625 -21.9375 6.375 C-21.53168701 5.86485352 -21.12587402 5.35470703 -20.70776367 4.82910156 C-14.9517441 -1.38281311 -7.92276177 -0.29840745 0 0 Z " fill="#000000" transform="translate(128.9375,39.625)"/>
<path d="M0 0 C9.9 0 19.8 0 30 0 C30 9.9 30 19.8 30 30 C20.1 30 10.2 30 0 30 C0 20.1 0 10.2 0 0 Z " fill="#000000" transform="translate(61,60)"/>
<path d="M0 0 C6.5328396 -0.02290439 13.06554097 -0.04283288 19.59838867 -0.05493164 C21.82267732 -0.05997317 24.04696263 -0.06680623 26.27124023 -0.07543945 C29.46078309 -0.08751298 32.65028229 -0.09322996 35.83984375 -0.09765625 C37.34139259 -0.10539818 37.34139259 -0.10539818 38.87327576 -0.11329651 C39.79415482 -0.11337204 40.71503387 -0.11344757 41.66381836 -0.11352539 C42.47878281 -0.115746 43.29374725 -0.11796661 44.13340759 -0.12025452 C46 0 46 0 47 1 C48.08847372 12.87991313 48.08847372 12.87991313 45.953125 17.0390625 C44.625 18.375 44.625 18.375 42 20 C41.34 20 40.68 20 40 20 C39.773125 20.556875 39.54625 21.11375 39.3125 21.6875 C37.62449964 24.66159588 35.53323483 26.72008865 33 29 C32.34 29 31.68 29 31 29 C30.67 29.99 30.34 30.98 30 32 C20.1 32 10.2 32 0 32 C0 21.44 0 10.88 0 0 Z " fill="#000000" transform="translate(9,77)"/>
<path d="M0 0 C1.22244667 0.00333092 1.22244667 0.00333092 2.46958923 0.00672913 C3.39046829 0.00680466 4.31134735 0.00688019 5.26013184 0.00695801 C6.2611644 0.01211929 7.26219696 0.01728058 8.29356384 0.02259827 C9.31316696 0.02401321 10.33277008 0.02542816 11.38327026 0.02688599 C14.65417867 0.03250355 17.92501972 0.04505902 21.19590759 0.05775452 C23.40749515 0.06276725 25.61908377 0.06733055 27.83067322 0.07142639 C33.26496511 0.08162972 38.69911057 0.10120166 44.13340759 0.12025452 C44.13340759 10.68025452 44.13340759 21.24025452 44.13340759 32.12025452 C16.23083055 34.2473568 16.23083055 34.2473568 8.35606384 28.82728577 C2.78126515 24.0285324 -2.60890336 18.38382743 -3.91346741 10.90931702 C-3.98566546 7.40771149 -3.78211104 4.4943007 -2.86659241 1.12025452 C-1.86659241 0.12025452 -1.86659241 0.12025452 0 0 Z " fill="#000000" transform="translate(98.86659240722656,76.87974548339844)"/>
<path d="M0 0 C0 15.51 0 31.02 0 47 C-7.46938792 47.06296393 -14.93781114 47.12306164 -22.40723419 47.15525055 C-25.88578175 47.17107253 -29.36410893 47.19220515 -32.8425293 47.22631836 C-36.83644712 47.26524063 -40.83013263 47.27972629 -44.82421875 47.29296875 C-46.06709152 47.30845261 -47.30996429 47.32393646 -48.59049988 47.33988953 C-49.75132584 47.34011612 -50.91215179 47.34034271 -52.1081543 47.34057617 C-53.63704536 47.35056892 -53.63704536 47.35056892 -55.19682312 47.36076355 C-58.75933733 46.90227472 -61.44339001 45.55660999 -64 43 C-64.08713831 41.29227642 -64.10700007 39.58101351 -64.09765625 37.87109375 C-64.09443359 36.83662109 -64.09121094 35.80214844 -64.08789062 34.73632812 C-64.07532227 33.1034082 -64.07532227 33.1034082 -64.0625 31.4375 C-64.05798828 30.34501953 -64.05347656 29.25253906 -64.04882812 28.12695312 C-64.03699826 25.41791505 -64.02051543 22.70898401 -64 20 C-63.16041748 20.06920654 -62.32083496 20.13841309 -61.45581055 20.2097168 C-45.11740715 21.73128622 -45.11740715 21.73128622 -29.89257812 17.08789062 C-26.30043293 13.9026987 -23.27213745 10.56388278 -20.41479492 6.70776367 C-13.70937432 -2.04687974 -13.02874539 0 0 0 Z " fill="#000000" transform="translate(73,95)"/>
<path d="M0 0 C14 0 14 0 18.43359375 4.12109375 C19.78257522 5.88233326 21.11670533 7.65502502 22.4375 9.4375 C27.9368609 15.96802803 32.58893427 19.71229761 41.109375 20.484375 C48.73264399 20.96721995 56.39535727 20.62684849 64 20 C64.08720919 23.58317958 64.14046112 27.16608567 64.1875 30.75 C64.21263672 31.76578125 64.23777344 32.7815625 64.26367188 33.828125 C64.27333984 34.8078125 64.28300781 35.7875 64.29296875 36.796875 C64.3086792 37.69760742 64.32438965 38.59833984 64.34057617 39.52636719 C63.92922921 42.51401407 63.0761241 43.83915473 61 46 C57.84665174 47.05111609 55.64487717 47.12070472 52.33520508 47.11352539 C51.17422806 47.11344986 50.01325104 47.11337433 48.8170929 47.11329651 C47.56389755 47.10813522 46.31070221 47.10297394 45.01953125 47.09765625 C43.73640549 47.0962413 42.45327972 47.09482635 41.13127136 47.09336853 C37.72329759 47.08955405 34.31536657 47.07973291 30.90740967 47.06866455 C27.42851348 47.05842744 23.94961016 47.05381117 20.47070312 47.04882812 C13.64709768 47.0386406 6.82360958 47.01906628 0 47 C0 31.49 0 15.98 0 0 Z " fill="#000000" transform="translate(79,95)"/>
</svg>
